<svg width="178" height="42" viewBox="0 0 178 42" fill="none" xmlns="http://www.w3.org/2000/svg">
<path d="M24.8301 0H22.4559C21.3358 0 20.3099 0.607637 19.7785 1.58473L0 37.8981H5.0925C6.21264 37.8981 7.23851 37.2918 7.76853 36.3147L21.6882 10.7981C22.0816 10.074 22.8125 9.64099 23.643 9.64099C24.4735 9.64099 25.2043 10.0727 25.5978 10.7981L33.4797 25.3001C34.011 26.2772 35.0356 26.8835 36.1557 26.8835H41.2482L27.5074 1.58473C26.9761 0.607637 25.9502 0 24.8301 0ZM68.0767 12.1703H60.2112C59.2892 12.1933 58.5133 12.5303 57.9641 13.1461C57.4792 13.6901 57.2115 14.4128 57.2115 15.1814C57.2115 15.9501 57.4792 16.6728 57.9641 17.2168C58.5133 17.8326 59.2905 18.1695 60.2221 18.1926H65.4513C64.6303 19.8138 62.9187 20.8884 61.106 20.8599H51.44C50.2065 20.8938 48.9621 20.3768 48.025 19.4484C47.0879 18.5201 46.5688 17.2872 46.6002 16.0543V10.8333C46.5675 9.60174 47.0865 8.36211 48.025 7.43103C48.9594 6.50401 50.2052 5.98975 51.451 6.02088H61.1114C62.7493 5.99111 64.3175 6.85858 65.2122 8.26873C65.7012 9.04012 66.6137 9.50159 67.6533 9.50159H71.9631L71.8824 9.02794C71.5027 6.79227 70.4809 4.82455 68.8376 3.17216C66.6096 1.06776 64.0074 0 61.1046 0H51.4496C48.5455 0 45.95 1.06776 43.7357 3.17351L43.7234 3.18569C41.5979 5.37941 40.5201 7.95611 40.5201 10.8454V16.0557C40.5201 18.9328 41.5979 21.5041 43.7234 23.6978L43.7357 23.71C45.95 25.8158 48.5455 26.8835 51.4496 26.8835H61.1046C64.0074 26.8835 66.6096 25.8158 68.8362 23.71L68.8499 23.6965C70.9631 21.5028 72.0341 18.9315 72.0341 16.0557C72.0341 16.0164 71.989 12.1703 68.0767 12.1703ZM103.222 3.18705C105.335 5.38076 106.406 7.95747 106.406 10.8468V16.057C106.406 18.9328 105.335 21.5041 103.222 23.6978L103.208 23.7114C100.981 25.8171 98.3804 26.8849 95.4763 26.8849H85.8213C82.9171 26.8849 80.3217 25.8171 78.1074 23.7114L78.0951 23.6992C75.9696 21.5055 74.8918 18.9342 74.8918 16.057V10.8468C74.8918 7.95747 75.9696 5.38076 78.0951 3.18705L78.1074 3.17487C80.3217 1.06912 82.9171 0.00135331 85.8213 0.00135331H95.4763C98.3791 0.00135331 100.98 1.06912 103.208 3.17487L103.222 3.1884V3.18705ZM80.9719 10.8468V16.057C80.9405 17.2899 81.4596 18.5228 82.3967 19.4511C83.3338 20.3795 84.5796 20.8951 85.8117 20.8626H95.4776C96.7166 20.8938 97.9665 20.3795 98.9036 19.4511C99.8407 18.5228 100.36 17.2899 100.328 16.0679V10.8468C100.361 9.60445 99.8421 8.36481 98.9036 7.43509C97.9693 6.50807 96.7248 5.99787 95.4886 6.02494H85.824C85.7899 6.02494 85.7543 6.02494 85.7188 6.02494C84.5072 6.02494 83.3064 6.53649 82.398 7.43644C81.461 8.36617 80.9405 9.60715 80.9733 10.8387V10.8495L80.9719 10.8468ZM158.227 1.58473C157.696 0.607637 156.671 0 155.551 0H153.177C152.057 0 151.031 0.607637 150.501 1.58473L137.085 26.2854L136.985 26.4681L132.88 18.8895C132.386 17.9774 132.636 16.8379 133.488 16.1179C136.447 13.6874 137.487 9.75196 136.137 6.09125C134.792 2.44002 131.456 0.0920251 127.628 0.0920251C127.602 0.0920251 127.576 0.0920251 127.55 0.0920251H112.304C110.628 0.0920251 109.265 1.44263 109.265 3.10314C109.265 4.76365 110.628 6.11426 112.304 6.11426H127.542C129.654 6.15621 130.617 7.73688 130.617 9.18763C130.617 11.2568 129.023 12.2326 127.55 12.261H112.295C110.232 12.3124 109.294 13.8579 109.295 15.2721C109.295 16.0408 109.563 16.7648 110.049 17.3088C110.598 17.9246 111.375 18.2616 112.306 18.2832H124.325C125.143 18.2832 125.892 18.7271 126.28 19.4403L129.461 25.2988C129.993 26.2759 131.017 26.8835 132.137 26.8835H141.85C142.97 26.8835 143.996 26.2772 144.526 25.3001L152.408 10.7981C152.801 10.074 153.532 9.64099 154.362 9.64099C155.193 9.64099 155.924 10.0727 156.317 10.7981L170.23 36.3635C170.761 37.3406 171.786 37.9468 172.906 37.9468H177.999L158.227 1.58473ZM29.4062 41.1691L34.1162 35.6421V42.0014H35.8811V33.1047H33.9673L29.4062 38.4611L24.8451 33.1047H22.9313V42.0014H24.6962V35.6421L29.4048 41.1691H29.4062ZM43.5513 35.2443L47.2231 42.0014H49.2298L44.4775 33.2522H42.6251L37.8728 42.0014H39.8781L43.5499 35.2443H43.5513ZM59.3329 37.7547C59.6348 37.2918 59.7864 36.7735 59.7864 36.1984C59.7864 35.6597 59.6539 35.1712 59.3889 34.7314C59.1239 34.2915 58.7673 33.9397 58.3207 33.6771C57.874 33.4146 57.3808 33.2833 56.8426 33.2833H50.8431V35.0318H56.8426C57.1677 35.0318 57.445 35.1468 57.6759 35.3742C57.9067 35.6029 58.0215 35.8776 58.0215 36.1997C58.0215 36.5218 57.9067 36.7965 57.6759 37.0252C57.445 37.2539 57.1677 37.3676 56.8426 37.3676H50.8431V39.1161H56.2867L57.8548 42.0014H59.8547L58.1321 38.8224C58.6294 38.5734 59.0296 38.2175 59.3329 37.7547ZM72.5313 33.2508H69.2174L63.614 36.7478V33.2508H61.8491V42H63.614V38.8143L65.4403 37.6775L70.026 42H72.5873L66.9826 36.7167L72.5313 33.2495V33.2508ZM84.2941 42V40.2515H76.3452V38.503H82.5292V36.7546H76.3452V34.9993H84.2941V33.2508H74.579V42H84.2941ZM86.2871 33.2508V34.9993H90.2622V42H92.0271V34.9993H96.1497V33.2508H86.2871ZM106.941 34.7029C106.676 34.2604 106.321 33.9086 105.877 33.6447C105.433 33.3821 104.939 33.2508 104.396 33.2508H98.1441V42H99.909V39.0836H104.396C104.939 39.0836 105.433 38.9523 105.877 38.6884C106.321 38.4259 106.676 38.074 106.941 37.6342C107.206 37.1944 107.339 36.7045 107.339 36.1672C107.339 35.63 107.206 35.1455 106.941 34.7029ZM104.395 34.9993C104.72 34.9993 104.997 35.113 105.228 35.3417C105.459 35.5704 105.574 35.8451 105.574 36.1672C105.574 36.4893 105.459 36.764 105.228 36.9928C104.997 37.2215 104.72 37.3351 104.395 37.3351H99.9076V34.9993H104.395ZM109.332 42H118.75V40.2515H111.097V33.2508H109.332V42ZM126.421 35.2429L130.092 42H132.099L127.347 33.2508H125.494L120.742 42H122.747L126.419 35.2429H126.421ZM134.017 40.9728C134.737 41.6576 135.569 42 136.51 42H139.75C140.693 42 141.526 41.6576 142.25 40.9728C142.892 40.3246 143.235 39.5505 143.28 38.6492H141.508C141.459 39.1053 141.269 39.4869 140.937 39.7928C140.607 40.0986 140.211 40.2515 139.749 40.2515H136.509C136.024 40.2515 135.607 40.0797 135.261 39.7373C134.916 39.3949 134.742 38.9835 134.742 38.5017V36.7532C134.742 36.2687 134.916 35.8546 135.261 35.5122C135.607 35.1698 136.022 34.998 136.509 34.998H139.749C140.209 34.998 140.605 35.1509 140.937 35.4567C141.268 35.7626 141.459 36.1456 141.508 36.6057H143.28C143.235 35.7003 142.891 34.9235 142.25 34.2767C141.526 33.5919 140.693 33.2495 139.75 33.2495H136.51C135.567 33.2495 134.737 33.5919 134.017 34.2767C133.326 34.9898 132.98 35.8154 132.98 36.7532V38.5017C132.98 39.4355 133.326 40.2583 134.017 40.9715V40.9728ZM154.988 42V40.2515H147.039V38.503H153.223V36.7546H147.039V34.9993H154.988V33.2508H145.273V42H154.988ZM26.7889 17.7866C26.7889 19.2644 25.8081 20.8789 23.6526 20.933H23.6416H23.6307C21.4765 20.8789 20.4943 19.2644 20.4943 17.7866C20.4943 16.3087 21.4751 14.6942 23.6307 14.6401H23.6416H23.6526C25.8068 14.6942 26.7889 16.3087 26.7889 17.7866ZM157.508 17.7866C157.508 19.2644 156.528 20.8789 154.372 20.933H154.361H154.35C152.196 20.8789 151.214 19.2644 151.214 17.7866C151.214 16.3087 152.195 14.6942 154.35 14.6401H154.361H154.372C156.526 14.6942 157.508 16.3087 157.508 17.7866Z" fill="white"/>
</svg>
