<svg width="57" height="53" viewBox="0 0 57 53" fill="none" xmlns="http://www.w3.org/2000/svg">
<g clip-path="url(#clip0_1005_446)">
<path d="M51.3239 30.4049C51.3239 30.7768 51.3239 31.1952 51.3239 31.5672C51.3239 31.8461 51.3239 32.1715 51.2772 32.497C51.2772 32.59 51.2772 32.6365 51.2772 32.7294C51.2772 32.9619 51.2772 33.1944 51.1838 33.4268C51.1838 33.7058 51.1371 33.9847 51.0904 34.2637C51.0904 34.5891 50.997 34.868 50.9503 35.1935C50.9503 35.4724 50.8569 35.7049 50.8102 35.9838C50.6234 36.9137 50.3899 37.797 50.1097 38.6803C50.0163 38.9593 49.9229 39.2382 49.8295 39.4707C49.7361 39.6566 49.6894 39.8891 49.596 40.0751C49.4559 40.4005 49.3158 40.7259 49.1757 41.0514C49.0823 41.0514 48.9889 41.1444 48.8955 41.1444C48.5219 41.2838 48.1483 41.4233 47.7747 41.6093C47.0741 41.8882 46.4203 42.2137 45.7665 42.5856C45.533 42.7251 45.2995 42.8645 45.0193 43.004C44.7391 43.1435 44.4122 43.3294 44.132 43.5154C43.8051 43.7014 43.4782 43.9338 43.198 44.1198C42.8711 44.3522 42.5442 44.5847 42.2172 44.8172C41.47 45.3286 40.7695 45.933 40.1157 46.5373C40.0223 46.6303 39.8822 46.7233 39.7888 46.8163C39.7888 46.8163 39.5086 47.0952 39.4152 47.2347C39.5553 47.0952 39.6954 46.9558 39.8822 46.8163C42.3574 45.3751 45.066 44.3058 47.9615 43.7014C47.5879 44.3522 47.2142 44.9566 46.8406 45.561C43.4315 46.2584 40.2558 47.6066 37.4538 49.4663H37.3604C37.3604 49.4663 37.3604 49.0479 37.3604 48.8154C37.3604 48.7224 37.3604 48.583 37.3604 48.49C37.3604 48.3505 37.3604 48.211 37.3604 48.0715C37.3604 47.6996 37.4538 47.2812 37.5005 46.9093C37.5005 46.6303 37.5939 46.3514 37.6406 46.1189C38.0142 44.3522 38.668 42.6786 39.5553 41.1444L39.8822 40.5865C40.0223 40.354 40.1624 40.1215 40.3492 39.8891C40.7228 39.3777 41.0964 38.9128 41.5167 38.4479C41.6568 38.2619 41.7969 38.1224 41.9837 37.983C42.1705 37.7505 42.3574 37.5645 42.5909 37.3786C42.9178 37.0996 43.2447 36.8207 43.5249 36.5417C46.7939 33.4268 48.8488 29.0101 48.8488 24.1286C48.8488 19.9908 47.3544 16.1786 44.8792 13.2031C45.1594 13.4821 45.3929 13.8075 45.6264 14.0865C45.8599 14.3654 46.0934 14.6908 46.3269 14.9698C46.5604 15.3417 46.7472 15.6207 46.9807 15.9461C47.2143 16.2715 47.4011 16.597 47.5879 16.9224C47.7747 17.2944 47.9615 17.6198 48.1483 17.9452C48.3351 18.2242 48.4752 18.5496 48.6153 18.8751C48.7554 19.1075 48.8488 19.3865 48.9422 19.6189C49.4092 20.6882 49.8295 21.804 50.1564 22.9198C50.2498 23.1522 50.2965 23.4312 50.3432 23.6637C50.4366 23.9426 50.4833 24.268 50.5767 24.547C50.6701 24.9189 50.7635 25.2908 50.8102 25.6628C50.8569 25.9417 50.9036 26.2207 50.9503 26.4996C51.0437 26.8715 51.0437 27.29 51.0904 27.7084C51.0904 27.9408 51.1371 28.1733 51.1371 28.4522C51.1371 28.7777 51.1838 29.0566 51.2305 29.3821C51.2305 29.8005 51.2305 30.2189 51.2305 30.6373L51.3239 30.4049Z" fill="white"/>
<path d="M19.7078 49.4199C16.9057 47.5603 13.6833 46.212 10.2742 45.4682C9.90056 44.8638 9.52695 44.2594 9.15335 43.655C12.1422 44.3059 14.9443 45.4217 17.4661 46.9559C17.5595 47.0489 17.6529 47.0954 17.6996 47.1884L17.4661 46.9559C17.4661 46.9559 17.0925 46.5375 16.859 46.398C16.5321 46.1191 16.2052 45.7936 15.8783 45.5612C15.5514 45.2822 15.2245 45.0033 14.8509 44.7708C14.524 44.4919 14.1503 44.2594 13.7767 44.027C13.1229 43.6085 12.5158 43.1901 11.862 42.8182C11.6285 42.7252 11.4417 42.5857 11.2082 42.4927C11.1148 42.4462 11.0214 42.3998 10.928 42.3533C10.3676 42.0743 9.76046 41.7954 9.20005 41.5164C8.82644 41.3769 8.45283 41.2375 8.07922 41.0515C7.98582 41.0515 7.89242 40.9585 7.79902 40.9585C7.0051 39.0989 6.39799 37.1462 6.02438 35.1006C5.97768 34.8217 5.93098 34.5892 5.88428 34.3103C5.83758 33.9848 5.79088 33.6129 5.74418 33.2875C5.74418 33.1015 5.69748 32.8691 5.65077 32.6831C5.55737 31.8927 5.55737 31.1489 5.55737 30.3585C5.55737 29.3357 5.60407 28.3594 5.74418 27.4296C5.74418 27.1506 5.79088 26.8717 5.83758 26.5927C5.83758 26.4998 5.83758 26.3603 5.83758 26.2673C5.93098 25.8024 5.97768 25.291 6.11778 24.8261C6.21119 24.3147 6.35129 23.7568 6.49139 23.2454C6.63149 22.734 6.7716 22.2226 6.9584 21.7112C7.0985 21.2462 7.28531 20.7348 7.47211 20.2699C7.89242 19.2471 8.35943 18.2243 8.91984 17.248C9.29345 16.5971 9.66706 15.9927 10.0874 15.3419C10.5077 14.7375 10.928 14.1331 11.395 13.5752C9.24675 16.4577 7.98582 19.991 7.98582 23.8498C7.98582 28.7313 10.0407 33.148 13.3564 36.2629C13.6366 36.5419 13.9635 36.8208 14.2904 37.0998C14.4773 37.2857 14.6641 37.4717 14.8509 37.6577C15.1311 37.9366 15.4113 38.262 15.6915 38.5875C15.8783 38.7734 16.0651 39.0059 16.2052 39.2383C16.392 39.4708 16.5788 39.7033 16.7189 39.9822C16.859 40.2147 16.9991 40.4006 17.1392 40.6331C17.2793 40.912 17.4661 41.191 17.6062 41.4699C17.6996 41.7024 17.8397 41.8884 17.9331 42.1208C18.0732 42.3998 18.1666 42.6322 18.26 42.9112C18.3534 43.1436 18.4935 43.4226 18.5869 43.655C18.8671 44.3989 19.0539 45.1427 19.2407 45.8866C19.2874 46.1191 19.3342 46.3515 19.3809 46.584C19.4276 46.9094 19.4743 47.2813 19.521 47.6068C19.521 47.7927 19.521 47.9787 19.5677 48.1182C19.5677 48.2112 19.5677 48.3041 19.5677 48.3971C19.5677 48.4901 19.5677 48.5366 19.5677 48.6296C19.5677 48.862 19.5677 49.0945 19.5677 49.3734L19.7078 49.4199Z" fill="white"/>
<path d="M56.8817 28.3132C56.8817 37.193 52.7721 45.0965 46.3273 50.257C51.838 45.3754 55.2939 38.2158 55.2939 30.3123C55.2939 15.5746 43.2451 3.53333 28.3942 3.53333C13.5433 3.53333 1.58783 15.5746 1.58783 30.3123C1.58783 38.3088 5.0904 45.4684 10.6945 50.35C4.15638 45.1895 0 37.2395 0 28.3132C0 12.6921 12.7494 0 28.4409 0C44.1324 0 56.8817 12.6921 56.8817 28.3132Z" fill="white"/>
<path d="M45.673 23.0598C45.673 23.4318 45.673 23.8037 45.673 24.2221C45.673 24.5476 45.673 24.873 45.5796 25.1984C45.4862 26.0353 45.2994 26.8721 45.0659 27.6625C44.9725 27.9414 44.9258 28.2204 44.8324 28.4528C44.739 28.6853 44.6923 28.9177 44.5989 29.1037C44.5055 29.3362 44.4588 29.5221 44.3654 29.7081C44.272 29.987 44.1319 30.2195 44.0385 30.4519C43.8983 30.7309 43.7582 31.0563 43.5714 31.3353C43.3846 31.1958 43.2445 31.0563 43.1044 30.9634C42.4039 30.4055 41.7968 29.7081 41.2831 29.0107C41.143 28.8248 41.0029 28.6853 40.9095 28.4993C39.7887 26.7791 39.1349 24.687 39.1349 22.4555C39.1349 21.8511 39.1349 21.2932 39.275 20.7353C39.275 20.4563 39.3684 20.2239 39.4151 19.9449C39.5085 19.1081 39.6019 18.2712 39.6019 17.4344C39.6019 16.7835 39.6019 16.1326 39.5085 15.5283C39.2283 12.7388 38.2475 10.1818 36.7998 7.9502C36.8932 7.99669 36.9866 8.04318 37.08 8.08967C40.0222 10.5537 42.1237 13.9941 42.9176 17.8993C42.4973 14.8774 41.2831 12.0879 39.4618 9.76335C39.6019 9.85633 39.742 9.99581 39.8821 10.1353C40.0689 10.2748 40.2557 10.4607 40.4425 10.6467C40.6293 10.8327 40.8628 11.0186 41.0496 11.2511C41.5166 11.7625 41.9836 12.2739 42.4039 12.8318C42.4973 12.9712 42.6374 13.1107 42.7308 13.2967C43.5714 14.5055 44.272 15.8072 44.7857 17.2484C44.9258 17.5739 45.0192 17.9458 45.1126 18.3177C45.206 18.6897 45.3461 19.1081 45.3928 19.48C45.4862 19.8055 45.5329 20.1309 45.5796 20.4563C45.5796 20.4563 45.5796 20.5028 45.5796 20.5493C45.5796 20.6888 45.5796 20.8748 45.6263 21.0142C45.6263 21.1072 45.6263 21.2002 45.6263 21.2932C45.6263 21.2932 45.6263 21.5721 45.6263 21.7116C45.6263 21.8976 45.6263 22.0835 45.6263 22.223C45.6263 22.5484 45.6263 22.8739 45.6263 23.1528L45.673 23.0598Z" fill="white"/>
<path d="M17.7931 20.9211C17.8865 21.4325 17.8865 21.9439 17.8865 22.4553C17.8865 24.6869 17.2327 26.779 16.1119 28.5456C16.0185 28.7316 15.8784 28.9176 15.7383 29.057C15.2246 29.8009 14.5708 30.4518 13.8703 31.0562C13.6835 31.1956 13.5433 31.3351 13.3565 31.4746C13.1697 31.1491 13.0296 30.8237 12.8895 30.5448C12.5626 29.8939 12.2824 29.15 12.0489 28.4527C11.9555 28.2202 11.9088 27.9877 11.8621 27.8018C11.8621 27.8018 11.8621 27.7088 11.8621 27.6623C11.8621 27.5693 11.8154 27.4763 11.7687 27.3834C11.6753 27.0579 11.6286 26.7325 11.5352 26.407C11.4885 26.1281 11.4418 25.8491 11.3951 25.5702C11.3951 25.4307 11.3951 25.2912 11.3484 25.1518C11.3484 24.8728 11.255 24.5939 11.255 24.2684C11.255 23.85 11.255 23.4781 11.255 23.0597C11.255 22.7342 11.255 22.4088 11.255 22.1298V22.0369C11.255 22.0369 11.255 21.7579 11.255 21.5719V21.479C11.255 21.479 11.255 21.386 11.255 21.293C11.255 21.0141 11.255 20.7816 11.3484 20.5027C11.3951 20.0842 11.4885 19.7123 11.5819 19.2939C11.6753 19.0149 11.722 18.6895 11.8154 18.4105C11.8621 18.1781 11.9555 17.9456 12.0022 17.7597C12.1423 17.2483 12.3291 16.7369 12.5626 16.272C12.656 16.0395 12.7494 15.807 12.8428 15.6211V15.5281C13.1697 14.9237 13.4966 14.3193 13.8703 13.7614C14.0571 13.436 14.2906 13.157 14.5241 12.8316C14.7576 12.5527 14.9444 12.2737 15.1779 11.9948C15.4114 11.6693 15.6449 11.3904 15.8784 11.1579C16.3454 10.6465 16.8591 10.1351 17.4195 9.71669C17.5129 9.6237 17.5596 9.57721 17.653 9.53072C15.785 11.9018 14.5241 14.7377 14.1038 17.8527C14.8977 13.8544 17.0459 10.4141 20.0348 7.95002C20.0348 7.95002 20.1749 7.85704 20.2683 7.81055C18.7739 10.0421 17.7931 12.6456 17.4662 15.4351C17.3728 16.086 17.3728 16.6904 17.3728 17.3412C17.3728 18.1781 17.4662 19.0149 17.5596 19.8518V19.9448C17.5596 19.9448 17.5596 20.0377 17.5596 20.0842C17.5596 20.3167 17.653 20.5491 17.653 20.7816L17.7931 20.9211Z" fill="white"/>
<path d="M42.8254 32.5904C42.4051 33.0554 41.9848 33.5203 41.5645 33.9852C41.1442 34.4501 40.7239 34.915 40.3503 35.3799C39.603 36.2633 38.8558 37.1931 38.1553 38.1229C37.8284 38.5413 37.5015 38.9597 37.2213 39.4247C36.8944 39.8896 36.5675 40.308 36.2873 40.7729C35.867 41.3773 35.4466 41.9817 35.073 42.6326C34.8862 42.958 34.6527 43.2834 34.4659 43.6089C34.3258 43.7948 34.2324 43.9808 34.0923 44.1668C33.9989 44.2597 33.9522 44.3992 33.9055 44.4922C33.2984 45.4685 32.7847 46.4448 32.271 47.4212C31.2903 49.2808 30.4029 51.1404 29.609 53.0466C29.142 52.0238 29.1887 50.908 29.142 49.8387C29.142 49.0483 29.0486 48.258 29.0486 47.4212C29.0486 46.5843 29.0019 45.794 28.9552 44.9571C28.9552 44.1668 28.9552 43.4229 28.9085 42.6326C28.9085 42.3536 28.9085 42.0747 28.9085 41.7957C28.9085 41.2843 28.9085 40.7729 28.9085 40.2615C28.9085 39.3317 28.9085 38.4018 28.9085 37.4255C28.9085 36.7747 28.9085 36.0773 28.9085 35.4264C28.9085 34.915 28.9085 34.4036 28.9085 33.9387V32.8694C28.9085 31.1492 29.0019 29.4755 29.0486 27.7554L30.9634 29.0106L29.7024 26.965L31.4771 26.4536L29.609 25.9887L30.3095 24.594L29.1887 25.2448L28.9552 25.3843L28.4882 22.5483L28.0212 25.3843L27.8344 25.2913L26.6669 24.6404L27.3674 26.0352L25.546 26.5001L27.3207 27.0115L26.0598 29.0571L27.9278 27.8483C27.9745 29.4755 28.0212 31.1492 28.0679 32.8229C28.0679 33.1948 28.0679 33.6133 28.0679 33.9852C28.0679 34.4966 28.0679 35.008 28.0679 35.5194C28.0679 36.1703 28.0679 36.8676 28.0679 37.5185C28.0679 38.4483 28.0679 39.4247 28.0679 40.3545C28.0679 40.8659 28.0679 41.3773 28.0679 41.8887C28.0679 42.1676 28.0679 42.4466 28.0679 42.7255C28.0679 43.5159 28.0679 44.2597 28.0212 45.0501C28.0212 45.8869 27.9745 46.7238 27.9278 47.5141C27.9278 48.3045 27.8811 49.0948 27.8344 49.9317C27.7877 51.001 27.8344 52.0703 27.3674 53.1396C26.5735 51.2334 25.6862 49.3273 24.7054 47.5141C24.1917 46.4913 23.6313 45.515 23.0242 44.5387C22.9308 44.3992 22.8841 44.2597 22.7907 44.1668C22.6973 43.9808 22.5572 43.7948 22.4638 43.6554C21.9034 42.7255 21.2963 41.8422 20.6892 40.9124C20.0353 39.9826 19.4282 39.0992 18.7277 38.2159C18.3541 37.751 17.9805 37.2396 17.6069 36.8211C16.4861 35.4264 15.3185 34.0317 14.0576 32.7299C15.552 31.7071 16.9064 30.4983 18.1673 29.1966C20.9694 31.7536 23.5379 34.5431 25.8263 37.565C26.2933 36.3562 26.7136 35.1475 27.0405 33.8457C27.0872 33.5668 27.1339 33.3343 27.1806 33.0554C25.3125 30.4518 23.211 27.9878 21.0161 25.6633C21.3897 25.1054 21.7633 24.5475 22.0902 23.9431C22.3237 23.5247 22.5572 23.0597 22.7907 22.5948C23.3044 21.572 23.7247 20.5492 24.0983 19.5264C24.1917 19.2475 24.2851 18.9685 24.3785 18.6896C24.612 18.0387 24.7521 17.3878 24.8922 16.7369C24.9856 16.458 25.0323 16.2255 25.079 15.9466C25.1257 15.5747 25.2191 15.2492 25.2658 14.8773C25.2658 14.5054 25.3592 14.1334 25.4059 13.7615C25.4993 13.1571 25.4993 12.5062 25.546 11.9018C25.546 11.5299 25.546 11.1115 25.546 10.6931C25.546 9.99571 25.546 9.34483 25.4526 8.64746H25.546C26.1532 11.9948 26.5735 15.3887 26.9471 18.7825C27.0405 19.294 27.0405 19.8054 27.1339 20.3168L27.2273 20.9676C27.3207 21.2466 27.5075 21.5255 27.7877 21.665C27.8811 21.758 28.0212 21.758 28.1146 21.8045C28.208 21.8045 28.3481 21.851 28.4882 21.851C28.5816 21.851 28.675 21.851 28.7684 21.851C28.9085 21.851 29.0019 21.758 29.0953 21.7115C29.1887 21.7115 29.2354 21.6185 29.3288 21.572C29.5156 21.3861 29.6557 21.1536 29.7491 20.9211C29.7491 20.7817 29.7491 20.5027 29.7491 20.4562C29.7958 19.8518 29.8425 19.294 29.9359 18.7361C30.1227 16.8764 30.3562 15.0633 30.5898 13.2036C30.6832 12.4597 30.8233 11.7159 30.9167 10.972C31.0101 10.1817 31.1502 9.43781 31.2903 8.69395H31.337C31.2903 9.39132 31.2436 10.0422 31.2436 10.7396C31.2436 11.0185 31.2436 11.344 31.2436 11.6229C31.2436 11.9018 31.2436 12.2273 31.2903 12.5062C31.2903 13.3431 31.4304 14.1334 31.5705 14.9238C31.6172 15.2957 31.7106 15.7141 31.7573 16.0861C31.7573 16.179 31.7573 16.272 31.8507 16.365C31.9441 16.8299 32.0375 17.2483 32.1776 17.7133V17.8062C32.271 18.2247 32.4111 18.6431 32.5512 19.0615C32.5979 19.2475 32.6446 19.4334 32.738 19.5729C32.8314 19.8054 32.9248 20.0843 33.0182 20.3168C33.205 20.8747 33.4385 21.3861 33.672 21.8975C33.7654 22.1299 33.8588 22.3159 33.9522 22.5483C34.2791 23.1992 34.606 23.8036 34.9796 24.4545C35.2131 24.8729 35.4933 25.2913 35.7736 25.7097C33.9522 27.6159 32.1776 29.615 30.5898 31.7071C30.2628 32.1255 29.9359 32.544 29.6557 32.9624C29.9359 34.5431 30.4029 36.0308 31.0101 37.5185C33.2984 34.5431 35.867 31.7536 38.6223 29.1966C39.8832 30.5448 41.2376 31.7071 42.732 32.7299L42.8254 32.5904Z" fill="#DF2541"/>
</g>
<defs>
<clipPath id="clip0_1005_446">
<rect width="57" height="53" fill="white"/>
</clipPath>
</defs>
</svg>
