<svg width="24" height="25" viewBox="0 0 24 25" fill="none" xmlns="http://www.w3.org/2000/svg">
<path d="M11.9955 0.00488281C9.62298 0.00488281 7.30379 0.708844 5.33114 2.02775C3.3585 3.34665 1.82101 5.22126 0.913105 7.41451C0.00519746 9.60776 -0.232353 12.0212 0.230495 14.3495C0.693342 16.6779 1.8358 18.8166 3.51339 20.4952C5.19099 22.1739 7.32837 23.317 9.65526 23.7802C11.9822 24.2433 14.394 24.0056 16.5859 23.0971C18.7778 22.1887 20.6512 20.6502 21.9693 18.6763C23.2874 16.7025 23.9909 14.3818 23.9909 12.0078C23.9909 8.82446 22.7271 5.77146 20.4775 3.52047C18.2279 1.26948 15.1769 0.00488281 11.9955 0.00488281ZM18.8062 8.94576L10.4734 17.2838C10.3859 17.372 10.267 17.4219 10.1428 17.4225C10.018 17.4214 9.89842 17.3717 9.80962 17.2838L5.18471 12.656C5.1411 12.6124 5.10651 12.5606 5.08291 12.5037C5.05931 12.4467 5.04716 12.3856 5.04716 12.3239C5.04716 12.2622 5.05931 12.2012 5.08291 12.1442C5.10651 12.0872 5.1411 12.0354 5.18471 11.9918L6.73346 10.4421C6.77703 10.3985 6.82876 10.3639 6.88571 10.3403C6.94265 10.3166 7.00369 10.3045 7.06533 10.3045C7.12697 10.3045 7.18801 10.3166 7.24495 10.3403C7.3019 10.3639 7.35363 10.3985 7.3972 10.4421L10.1428 13.1868L16.5937 6.73187C16.6373 6.68824 16.689 6.65363 16.746 6.63002C16.8029 6.6064 16.864 6.59425 16.9256 6.59425C16.9872 6.59425 17.0483 6.6064 17.1052 6.63002C17.1622 6.65363 17.2139 6.68824 17.2575 6.73187L18.8062 8.27359C18.8936 8.36198 18.9427 8.48131 18.9427 8.60567C18.9427 8.73003 18.8936 8.84936 18.8062 8.93775V8.94576Z" fill="#2CF07A"/>
</svg>
